# Tiled2Unity generated file. Do not modify by hand.
# Wavefront file for 'ActionRPG_PracticeMap_mesh_0003.obj'

# Vertices (Count = 228)
v -624 -368 0
v -640 -368 0
v -640 -352 0
v -624 -352 0
v -592 -384 0
v -608 -384 0
v -608 -368 0
v -592 -368 0
v -592 -400 0
v -608 -400 0
v -608 -384 0
v -592 -384 0
v -528 -400 0
v -544 -400 0
v -544 -384 0
v -528 -384 0
v -480 -400 0
v -496 -400 0
v -496 -384 0
v -480 -384 0
v -624 -416 0
v -640 -416 0
v -640 -400 0
v -624 -400 0
v -528 -416 0
v -544 -416 0
v -544 -400 0
v -528 -400 0
v -480 -416 0
v -496 -416 0
v -496 -400 0
v -480 -400 0
v -448 -416 0
v -464 -416 0
v -464 -400 0
v -448 -400 0
v -448 -432 0
v -464 -432 0
v -464 -416 0
v -448 -416 0
v -480 -448 0
v -496 -448 0
v -496 -432 0
v -480 -432 0
v -480 -464 0
v -496 -464 0
v -496 -448 0
v -480 -448 0
v -432 -464 0
v -448 -464 0
v -448 -448 0
v -432 -448 0
v -480 -480 0
v -496 -480 0
v -496 -464 0
v -480 -464 0
v -432 -480 0
v -448 -480 0
v -448 -464 0
v -432 -464 0
v -512 -496 0
v -528 -496 0
v -528 -480 0
v -512 -480 0
v -480 -496 0
v -496 -496 0
v -496 -480 0
v -480 -480 0
v -592 -512 0
v -608 -512 0
v -608 -496 0
v -592 -496 0
v -512 -512 0
v -528 -512 0
v -528 -496 0
v -512 -496 0
v -816 -528 0
v -832 -528 0
v -832 -512 0
v -816 -512 0
v -592 -528 0
v -608 -528 0
v -608 -512 0
v -592 -512 0
v -864 -544 0
v -880 -544 0
v -880 -528 0
v -864 -528 0
v -816 -544 0
v -832 -544 0
v -832 -528 0
v -816 -528 0
v -768 -544 0
v -784 -544 0
v -784 -528 0
v -768 -528 0
v -624 -544 0
v -640 -544 0
v -640 -528 0
v -624 -528 0
v -800 -560 0
v -816 -560 0
v -816 -544 0
v -800 -544 0
v -768 -560 0
v -784 -560 0
v -784 -544 0
v -768 -544 0
v -624 -560 0
v -640 -560 0
v -640 -544 0
v -624 -544 0
v -560 -560 0
v -576 -560 0
v -576 -544 0
v -560 -544 0
v -800 -576 0
v -816 -576 0
v -816 -560 0
v -800 -560 0
v -624 -576 0
v -640 -576 0
v -640 -560 0
v -624 -560 0
v -560 -576 0
v -576 -576 0
v -576 -560 0
v -560 -560 0
v -800 -592 0
v -816 -592 0
v -816 -576 0
v -800 -576 0
v -624 -592 0
v -640 -592 0
v -640 -576 0
v -624 -576 0
v -384 -592 0
v -400 -592 0
v -400 -576 0
v -384 -576 0
v -800 -608 0
v -816 -608 0
v -816 -592 0
v -800 -592 0
v -560 -608 0
v -576 -608 0
v -576 -592 0
v -560 -592 0
v -384 -608 0
v -400 -608 0
v -400 -592 0
v -384 -592 0
v -592 -624 0
v -608 -624 0
v -608 -608 0
v -592 -608 0
v -560 -624 0
v -576 -624 0
v -576 -608 0
v -560 -608 0
v -816 -640 0
v -832 -640 0
v -832 -624 0
v -816 -624 0
v -592 -640 0
v -608 -640 0
v -608 -624 0
v -592 -624 0
v -816 -656 0
v -832 -656 0
v -832 -640 0
v -816 -640 0
v -512 -656 0
v -528 -656 0
v -528 -640 0
v -512 -640 0
v -528 -672 0
v -544 -672 0
v -544 -656 0
v -528 -656 0
v -512 -672 0
v -528 -672 0
v -528 -656 0
v -512 -656 0
v -464 -672 0
v -480 -672 0
v -480 -656 0
v -464 -656 0
v -384 -672 0
v -400 -672 0
v -400 -656 0
v -384 -656 0
v -528 -688 0
v -544 -688 0
v -544 -672 0
v -528 -672 0
v -464 -688 0
v -480 -688 0
v -480 -672 0
v -464 -672 0
v -384 -688 0
v -400 -688 0
v -400 -672 0
v -384 -672 0
v -496 -704 0
v -512 -704 0
v -512 -688 0
v -496 -688 0
v -496 -720 0
v -512 -720 0
v -512 -704 0
v -496 -704 0
v -448 -720 0
v -464 -720 0
v -464 -704 0
v -448 -704 0
v -496 -736 0
v -512 -736 0
v -512 -720 0
v -496 -720 0
v -448 -736 0
v -464 -736 0
v -464 -720 0
v -448 -720 0
v -496 -752 0
v -512 -752 0
v -512 -736 0
v -496 -736 0

# Texture cooridinates (Count = 36)
vt 0.2809917 0.6787072
vt 0.2975207 0.6787072
vt 0.2975207 0.7091255
vt 0.2809917 0.7091255
vt 0.2634298 0.6463878
vt 0.2799587 0.6463878
vt 0.2799587 0.6768061
vt 0.2634298 0.6768061
vt 0.2634298 0.6140684
vt 0.2799587 0.6140684
vt 0.2799587 0.6444867
vt 0.2634298 0.6444867
vt 0.2985537 0.6463878
vt 0.3150826 0.6463878
vt 0.3150826 0.6768061
vt 0.2985537 0.6768061
vt 0.2985537 0.6140684
vt 0.3150826 0.6140684
vt 0.3150826 0.6444867
vt 0.2985537 0.6444867
vt 0.2809917 0.6463878
vt 0.2975207 0.6463878
vt 0.2975207 0.6768061
vt 0.2809917 0.6768061
vt 0.2809917 0.6140684
vt 0.2975207 0.6140684
vt 0.2975207 0.6444867
vt 0.2809917 0.6444867
vt 0.3161157 0.6463878
vt 0.3326446 0.6463878
vt 0.3326446 0.6768061
vt 0.3161157 0.6768061
vt 0.3161157 0.6140684
vt 0.3326446 0.6140684
vt 0.3326446 0.6444867
vt 0.3161157 0.6444867

# Normal
vn 0 0 -1

# Mesh description
g ActionRPG_PracticeMap_mesh_0003

# Faces
f 1/1/1 2/2/1 3/3/1 4/4/1
f 5/1/1 6/2/1 7/3/1 8/4/1
f 9/1/1 10/2/1 11/3/1 12/4/1
f 13/5/1 14/6/1 15/7/1 16/8/1
f 17/5/1 18/6/1 19/7/1 20/8/1
f 21/1/1 22/2/1 23/3/1 24/4/1
f 25/9/1 26/10/1 27/11/1 28/12/1
f 29/9/1 30/10/1 31/11/1 32/12/1
f 33/5/1 34/6/1 35/7/1 36/8/1
f 37/9/1 38/10/1 39/11/1 40/12/1
f 41/5/1 42/6/1 43/7/1 44/8/1
f 45/9/1 46/10/1 47/11/1 48/12/1
f 49/5/1 50/6/1 51/7/1 52/8/1
f 53/5/1 54/6/1 55/7/1 56/8/1
f 57/9/1 58/10/1 59/11/1 60/12/1
f 61/5/1 62/6/1 63/7/1 64/8/1
f 65/9/1 66/10/1 67/11/1 68/12/1
f 69/13/1 70/14/1 71/15/1 72/16/1
f 73/9/1 74/10/1 75/11/1 76/12/1
f 77/13/1 78/14/1 79/15/1 80/16/1
f 81/17/1 82/18/1 83/19/1 84/20/1
f 85/1/1 86/2/1 87/3/1 88/4/1
f 89/17/1 90/18/1 91/19/1 92/20/1
f 93/21/1 94/22/1 95/23/1 96/24/1
f 97/13/1 98/14/1 99/15/1 100/16/1
f 101/13/1 102/14/1 103/15/1 104/16/1
f 105/25/1 106/26/1 107/27/1 108/28/1
f 109/17/1 110/18/1 111/19/1 112/20/1
f 113/21/1 114/22/1 115/23/1 116/24/1
f 117/17/1 118/18/1 119/19/1 120/20/1
f 121/21/1 122/22/1 123/23/1 124/24/1
f 125/25/1 126/26/1 127/27/1 128/28/1
f 129/21/1 130/22/1 131/23/1 132/24/1
f 133/25/1 134/26/1 135/27/1 136/28/1
f 137/29/1 138/30/1 139/31/1 140/32/1
f 141/25/1 142/26/1 143/27/1 144/28/1
f 145/13/1 146/14/1 147/15/1 148/16/1
f 149/33/1 150/34/1 151/35/1 152/36/1
f 153/21/1 154/22/1 155/23/1 156/24/1
f 157/17/1 158/18/1 159/19/1 160/20/1
f 161/13/1 162/14/1 163/15/1 164/16/1
f 165/25/1 166/26/1 167/27/1 168/28/1
f 169/17/1 170/18/1 171/19/1 172/20/1
f 173/29/1 174/30/1 175/31/1 176/32/1
f 177/21/1 178/22/1 179/23/1 180/24/1
f 181/33/1 182/34/1 183/35/1 184/36/1
f 185/29/1 186/30/1 187/31/1 188/32/1
f 189/29/1 190/30/1 191/31/1 192/32/1
f 193/25/1 194/26/1 195/27/1 196/28/1
f 197/33/1 198/34/1 199/35/1 200/36/1
f 201/33/1 202/34/1 203/35/1 204/36/1
f 205/29/1 206/30/1 207/31/1 208/32/1
f 209/33/1 210/34/1 211/35/1 212/36/1
f 213/29/1 214/30/1 215/31/1 216/32/1
f 217/29/1 218/30/1 219/31/1 220/32/1
f 221/33/1 222/34/1 223/35/1 224/36/1
f 225/33/1 226/34/1 227/35/1 228/36/1

