# Tiled2Unity generated file. Do not modify by hand.
# Wavefront file for 'City_Scape_mesh_0005.obj'

# Vertices (Count = 288)
v -368 -32 0
v -384 -32 0
v -384 -16 0
v -368 -16 0
v -352 -32 0
v -368 -32 0
v -368 -16 0
v -352 -16 0
v -336 -32 0
v -352 -32 0
v -352 -16 0
v -336 -16 0
v -320 -32 0
v -336 -32 0
v -336 -16 0
v -320 -16 0
v -304 -32 0
v -320 -32 0
v -320 -16 0
v -304 -16 0
v -368 -64 0
v -384 -64 0
v -384 -48 0
v -368 -48 0
v -352 -64 0
v -368 -64 0
v -368 -48 0
v -352 -48 0
v -336 -64 0
v -352 -64 0
v -352 -48 0
v -336 -48 0
v -320 -64 0
v -336 -64 0
v -336 -48 0
v -320 -48 0
v -304 -64 0
v -320 -64 0
v -320 -48 0
v -304 -48 0
v -496 -96 0
v -512 -96 0
v -512 -80 0
v -496 -80 0
v -368 -96 0
v -384 -96 0
v -384 -80 0
v -368 -80 0
v -352 -96 0
v -368 -96 0
v -368 -80 0
v -352 -80 0
v -336 -96 0
v -352 -96 0
v -352 -80 0
v -336 -80 0
v -320 -96 0
v -336 -96 0
v -336 -80 0
v -320 -80 0
v -304 -96 0
v -320 -96 0
v -320 -80 0
v -304 -80 0
v -64 -112 0
v -80 -112 0
v -80 -96 0
v -64 -96 0
v -224 -304 0
v -240 -304 0
v -240 -288 0
v -224 -288 0
v -80 -304 0
v -96 -304 0
v -96 -288 0
v -80 -288 0
v -64 -304 0
v -80 -304 0
v -80 -288 0
v -64 -288 0
v -256 -336 0
v -272 -336 0
v -272 -320 0
v -256 -320 0
v -240 -336 0
v -256 -336 0
v -256 -320 0
v -240 -320 0
v -208 -336 0
v -224 -336 0
v -224 -320 0
v -208 -320 0
v -192 -336 0
v -208 -336 0
v -208 -320 0
v -192 -320 0
v -112 -336 0
v -128 -336 0
v -128 -320 0
v -112 -320 0
v -96 -336 0
v -112 -336 0
v -112 -320 0
v -96 -320 0
v -48 -336 0
v -64 -336 0
v -64 -320 0
v -48 -320 0
v -32 -336 0
v -48 -336 0
v -48 -320 0
v -32 -320 0
v -256 -352 0
v -272 -352 0
v -272 -336 0
v -256 -336 0
v -240 -352 0
v -256 -352 0
v -256 -336 0
v -240 -336 0
v -208 -352 0
v -224 -352 0
v -224 -336 0
v -208 -336 0
v -192 -352 0
v -208 -352 0
v -208 -336 0
v -192 -336 0
v -112 -352 0
v -128 -352 0
v -128 -336 0
v -112 -336 0
v -96 -352 0
v -112 -352 0
v -112 -336 0
v -96 -336 0
v -48 -352 0
v -64 -352 0
v -64 -336 0
v -48 -336 0
v -32 -352 0
v -48 -352 0
v -48 -336 0
v -32 -336 0
v -512 -368 0
v -528 -368 0
v -528 -352 0
v -512 -352 0
v -496 -368 0
v -512 -368 0
v -512 -352 0
v -496 -352 0
v -480 -368 0
v -496 -368 0
v -496 -352 0
v -480 -352 0
v -592 -384 0
v -608 -384 0
v -608 -368 0
v -592 -368 0
v -576 -384 0
v -592 -384 0
v -592 -368 0
v -576 -368 0
v -560 -384 0
v -576 -384 0
v -576 -368 0
v -560 -368 0
v -544 -384 0
v -560 -384 0
v -560 -368 0
v -544 -368 0
v -528 -384 0
v -544 -384 0
v -544 -368 0
v -528 -368 0
v -512 -384 0
v -528 -384 0
v -528 -368 0
v -512 -368 0
v -496 -384 0
v -512 -384 0
v -512 -368 0
v -496 -368 0
v -480 -384 0
v -496 -384 0
v -496 -368 0
v -480 -368 0
v -464 -384 0
v -480 -384 0
v -480 -368 0
v -464 -368 0
v -448 -384 0
v -464 -384 0
v -464 -368 0
v -448 -368 0
v -432 -384 0
v -448 -384 0
v -448 -368 0
v -432 -368 0
v -416 -384 0
v -432 -384 0
v -432 -368 0
v -416 -368 0
v -400 -384 0
v -416 -384 0
v -416 -368 0
v -400 -368 0
v -992 -400 0
v -1008 -400 0
v -1008 -384 0
v -992 -384 0
v -800 -400 0
v -816 -400 0
v -816 -384 0
v -800 -384 0
v -784 -400 0
v -800 -400 0
v -800 -384 0
v -784 -384 0
v -592 -400 0
v -608 -400 0
v -608 -384 0
v -592 -384 0
v -496 -400 0
v -512 -400 0
v -512 -384 0
v -496 -384 0
v -400 -400 0
v -416 -400 0
v -416 -384 0
v -400 -384 0
v -256 -400 0
v -272 -400 0
v -272 -384 0
v -256 -384 0
v -240 -400 0
v -256 -400 0
v -256 -384 0
v -240 -384 0
v -208 -400 0
v -224 -400 0
v -224 -384 0
v -208 -384 0
v -192 -400 0
v -208 -400 0
v -208 -384 0
v -192 -384 0
v -112 -400 0
v -128 -400 0
v -128 -384 0
v -112 -384 0
v -96 -400 0
v -112 -400 0
v -112 -384 0
v -96 -384 0
v -48 -400 0
v -64 -400 0
v -64 -384 0
v -48 -384 0
v -32 -400 0
v -48 -400 0
v -48 -384 0
v -32 -384 0
v -304 -432 0
v -320 -432 0
v -320 -416 0
v -304 -416 0
v -288 -432 0
v -304 -432 0
v -304 -416 0
v -288 -416 0
v -272 -432 0
v -288 -432 0
v -288 -416 0
v -272 -416 0
v -256 -432 0
v -272 -432 0
v -272 -416 0
v -256 -416 0
v -240 -432 0
v -256 -432 0
v -256 -416 0
v -240 -416 0
v -224 -432 0
v -240 -432 0
v -240 -416 0
v -224 -416 0

# Texture cooridinates (Count = 100)
vt 0.2707006 0.5010526
vt 0.2961783 0.5010526
vt 0.2961783 0.5347369
vt 0.2707006 0.5347369
vt 0.1624204 0.5010526
vt 0.1878981 0.5010526
vt 0.1878981 0.5347369
vt 0.1624204 0.5347369
vt 0.1353503 0.5010526
vt 0.160828 0.5010526
vt 0.160828 0.5347369
vt 0.1353503 0.5347369
vt 0.1082803 0.5010526
vt 0.133758 0.5010526
vt 0.133758 0.5347369
vt 0.1082803 0.5347369
vt 0.2977707 0.5010526
vt 0.3232484 0.5010526
vt 0.3232484 0.5347369
vt 0.2977707 0.5347369
vt 0.5955414 0.03578949
vt 0.6210191 0.03578949
vt 0.6210191 0.06947368
vt 0.5955414 0.06947368
vt 0.6767516 0
vt 0.7022293 0
vt 0.7022293 0.03368419
vt 0.6767516 0.03368419
vt 0.7579618 0.03578949
vt 0.7834395 0.03578949
vt 0.7834395 0.06947368
vt 0.7579618 0.06947368
vt 0.8121019 0.1073684
vt 0.8375796 0.1073684
vt 0.8375796 0.1410526
vt 0.8121019 0.1410526
vt 0.7850319 0.1073684
vt 0.8105096 0.1073684
vt 0.8105096 0.1410526
vt 0.7850319 0.1410526
vt 0.8662421 0.5010526
vt 0.8917198 0.5010526
vt 0.8917198 0.5347369
vt 0.8662421 0.5347369
vt 0.9474522 0.5010526
vt 0.97293 0.5010526
vt 0.97293 0.5347369
vt 0.9474522 0.5347369
vt 0.8933121 0.7515789
vt 0.9187898 0.7515789
vt 0.9187898 0.7852632
vt 0.8933121 0.7852632
vt 0.8662421 0.7515789
vt 0.8917198 0.7515789
vt 0.8917198 0.7852632
vt 0.8662421 0.7852632
vt 0.8391719 0.7515789
vt 0.8646497 0.7515789
vt 0.8646497 0.7852632
vt 0.8391719 0.7852632
vt 0.7850319 0.6084211
vt 0.8105096 0.6084211
vt 0.8105096 0.6421052
vt 0.7850319 0.6421052
vt 0.7579618 0.6084211
vt 0.7834395 0.6084211
vt 0.7834395 0.6421052
vt 0.7579618 0.6421052
vt 0.7308917 0.6084211
vt 0.7563694 0.6084211
vt 0.7563694 0.6421052
vt 0.7308917 0.6421052
vt 0.7308917 0
vt 0.7563694 0
vt 0.7563694 0.03368419
vt 0.7308917 0.03368419
vt 0.6496815 0.1431579
vt 0.6751592 0.1431579
vt 0.6751592 0.1768421
vt 0.6496815 0.1768421
vt 0.6226115 0.1431579
vt 0.6480892 0.1431579
vt 0.6480892 0.1768421
vt 0.6226115 0.1768421
vt 0.5955414 0.5368421
vt 0.6210191 0.5368421
vt 0.6210191 0.5705263
vt 0.5955414 0.5705263
vt 0.5684713 0.5368421
vt 0.593949 0.5368421
vt 0.593949 0.5705263
vt 0.5684713 0.5705263
vt 0.2165605 0.1789474
vt 0.2420382 0.1789474
vt 0.2420382 0.2126316
vt 0.2165605 0.2126316
vt 0.1894905 0.1789474
vt 0.2149682 0.1789474
vt 0.2149682 0.2126316
vt 0.1894905 0.2126316

# Normal
vn 0 0 -1

# Mesh description
g City_Scape_mesh_0005

# Faces
f 1/1/1 2/2/1 3/3/1 4/4/1
f 5/5/1 6/6/1 7/7/1 8/8/1
f 9/9/1 10/10/1 11/11/1 12/12/1
f 13/13/1 14/14/1 15/15/1 16/16/1
f 17/17/1 18/18/1 19/19/1 20/20/1
f 21/1/1 22/2/1 23/3/1 24/4/1
f 25/5/1 26/6/1 27/7/1 28/8/1
f 29/9/1 30/10/1 31/11/1 32/12/1
f 33/13/1 34/14/1 35/15/1 36/16/1
f 37/17/1 38/18/1 39/19/1 40/20/1
f 41/21/1 42/22/1 43/23/1 44/24/1
f 45/1/1 46/2/1 47/3/1 48/4/1
f 49/5/1 50/6/1 51/7/1 52/8/1
f 53/9/1 54/10/1 55/11/1 56/12/1
f 57/13/1 58/14/1 59/15/1 60/16/1
f 61/17/1 62/18/1 63/19/1 64/20/1
f 65/25/1 66/26/1 67/27/1 68/28/1
f 69/29/1 70/30/1 71/31/1 72/32/1
f 73/33/1 74/34/1 75/35/1 76/36/1
f 77/37/1 78/38/1 79/39/1 80/40/1
f 81/41/1 82/42/1 83/43/1 84/44/1
f 85/41/1 86/42/1 87/43/1 88/44/1
f 89/41/1 90/42/1 91/43/1 92/44/1
f 93/41/1 94/42/1 95/43/1 96/44/1
f 97/45/1 98/46/1 99/47/1 100/48/1
f 101/45/1 102/46/1 103/47/1 104/48/1
f 105/45/1 106/46/1 107/47/1 108/48/1
f 109/45/1 110/46/1 111/47/1 112/48/1
f 113/41/1 114/42/1 115/43/1 116/44/1
f 117/41/1 118/42/1 119/43/1 120/44/1
f 121/41/1 122/42/1 123/43/1 124/44/1
f 125/41/1 126/42/1 127/43/1 128/44/1
f 129/45/1 130/46/1 131/47/1 132/48/1
f 133/45/1 134/46/1 135/47/1 136/48/1
f 137/45/1 138/46/1 139/47/1 140/48/1
f 141/45/1 142/46/1 143/47/1 144/48/1
f 145/49/1 146/50/1 147/51/1 148/52/1
f 149/53/1 150/54/1 151/55/1 152/56/1
f 153/57/1 154/58/1 155/59/1 156/60/1
f 157/61/1 158/62/1 159/63/1 160/64/1
f 161/65/1 162/66/1 163/67/1 164/68/1
f 165/65/1 166/66/1 167/67/1 168/68/1
f 169/65/1 170/66/1 171/67/1 172/68/1
f 173/65/1 174/66/1 175/67/1 176/68/1
f 177/65/1 178/66/1 179/67/1 180/68/1
f 181/65/1 182/66/1 183/67/1 184/68/1
f 185/65/1 186/66/1 187/67/1 188/68/1
f 189/65/1 190/66/1 191/67/1 192/68/1
f 193/65/1 194/66/1 195/67/1 196/68/1
f 197/65/1 198/66/1 199/67/1 200/68/1
f 201/65/1 202/66/1 203/67/1 204/68/1
f 205/69/1 206/70/1 207/71/1 208/72/1
f 209/73/1 210/74/1 211/75/1 212/76/1
f 213/77/1 214/78/1 215/79/1 216/80/1
f 217/81/1 218/82/1 219/83/1 220/84/1
f 221/85/1 222/86/1 223/87/1 224/88/1
f 225/29/1 226/30/1 227/31/1 228/32/1
f 229/89/1 230/90/1 231/91/1 232/92/1
f 233/41/1 234/42/1 235/43/1 236/44/1
f 237/41/1 238/42/1 239/43/1 240/44/1
f 241/41/1 242/42/1 243/43/1 244/44/1
f 245/41/1 246/42/1 247/43/1 248/44/1
f 249/45/1 250/46/1 251/47/1 252/48/1
f 253/45/1 254/46/1 255/47/1 256/48/1
f 257/45/1 258/46/1 259/47/1 260/48/1
f 261/45/1 262/46/1 263/47/1 264/48/1
f 265/93/1 266/94/1 267/95/1 268/96/1
f 269/97/1 270/98/1 271/99/1 272/100/1
f 273/97/1 274/98/1 275/99/1 276/100/1
f 277/97/1 278/98/1 279/99/1 280/100/1
f 281/97/1 282/98/1 283/99/1 284/100/1
f 285/97/1 286/98/1 287/99/1 288/100/1

