# Tiled2Unity generated file. Do not modify by hand.
# Wavefront file for 'map2_mesh_0003.obj'

# Vertices (Count = 332)
v -768 -288 0
v -784 -288 0
v -784 -272 0
v -768 -272 0
v -752 -288 0
v -768 -288 0
v -768 -272 0
v -752 -272 0
v -784 -304 0
v -800 -304 0
v -800 -288 0
v -784 -288 0
v -768 -304 0
v -784 -304 0
v -784 -288 0
v -768 -288 0
v -752 -304 0
v -768 -304 0
v -768 -288 0
v -752 -288 0
v -736 -304 0
v -752 -304 0
v -752 -288 0
v -736 -288 0
v -784 -320 0
v -800 -320 0
v -800 -304 0
v -784 -304 0
v -768 -320 0
v -784 -320 0
v -784 -304 0
v -768 -304 0
v -752 -320 0
v -768 -320 0
v -768 -304 0
v -752 -304 0
v -736 -320 0
v -752 -320 0
v -752 -304 0
v -736 -304 0
v -784 -336 0
v -800 -336 0
v -800 -320 0
v -784 -320 0
v -736 -336 0
v -752 -336 0
v -752 -320 0
v -736 -320 0
v -752 -368 0
v -768 -368 0
v -768 -352 0
v -752 -352 0
v -624 -368 0
v -640 -368 0
v -640 -352 0
v -624 -352 0
v -592 -384 0
v -608 -384 0
v -608 -368 0
v -592 -368 0
v -592 -400 0
v -608 -400 0
v -608 -384 0
v -592 -384 0
v -528 -400 0
v -544 -400 0
v -544 -384 0
v -528 -384 0
v -480 -400 0
v -496 -400 0
v -496 -384 0
v -480 -384 0
v -624 -416 0
v -640 -416 0
v -640 -400 0
v -624 -400 0
v -528 -416 0
v -544 -416 0
v -544 -400 0
v -528 -400 0
v -480 -416 0
v -496 -416 0
v -496 -400 0
v -480 -400 0
v -448 -416 0
v -464 -416 0
v -464 -400 0
v -448 -400 0
v -448 -432 0
v -464 -432 0
v -464 -416 0
v -448 -416 0
v -480 -448 0
v -496 -448 0
v -496 -432 0
v -480 -432 0
v -480 -464 0
v -496 -464 0
v -496 -448 0
v -480 -448 0
v -432 -464 0
v -448 -464 0
v -448 -448 0
v -432 -448 0
v -480 -480 0
v -496 -480 0
v -496 -464 0
v -480 -464 0
v -432 -480 0
v -448 -480 0
v -448 -464 0
v -432 -464 0
v -512 -496 0
v -528 -496 0
v -528 -480 0
v -512 -480 0
v -480 -496 0
v -496 -496 0
v -496 -480 0
v -480 -480 0
v -592 -512 0
v -608 -512 0
v -608 -496 0
v -592 -496 0
v -512 -512 0
v -528 -512 0
v -528 -496 0
v -512 -496 0
v -816 -528 0
v -832 -528 0
v -832 -512 0
v -816 -512 0
v -592 -528 0
v -608 -528 0
v -608 -512 0
v -592 -512 0
v -864 -544 0
v -880 -544 0
v -880 -528 0
v -864 -528 0
v -816 -544 0
v -832 -544 0
v -832 -528 0
v -816 -528 0
v -768 -544 0
v -784 -544 0
v -784 -528 0
v -768 -528 0
v -624 -544 0
v -640 -544 0
v -640 -528 0
v -624 -528 0
v -800 -560 0
v -816 -560 0
v -816 -544 0
v -800 -544 0
v -768 -560 0
v -784 -560 0
v -784 -544 0
v -768 -544 0
v -624 -560 0
v -640 -560 0
v -640 -544 0
v -624 -544 0
v -560 -560 0
v -576 -560 0
v -576 -544 0
v -560 -544 0
v -800 -576 0
v -816 -576 0
v -816 -560 0
v -800 -560 0
v -624 -576 0
v -640 -576 0
v -640 -560 0
v -624 -560 0
v -560 -576 0
v -576 -576 0
v -576 -560 0
v -560 -560 0
v -800 -592 0
v -816 -592 0
v -816 -576 0
v -800 -576 0
v -624 -592 0
v -640 -592 0
v -640 -576 0
v -624 -576 0
v -384 -592 0
v -400 -592 0
v -400 -576 0
v -384 -576 0
v -800 -608 0
v -816 -608 0
v -816 -592 0
v -800 -592 0
v -560 -608 0
v -576 -608 0
v -576 -592 0
v -560 -592 0
v -384 -608 0
v -400 -608 0
v -400 -592 0
v -384 -592 0
v -592 -624 0
v -608 -624 0
v -608 -608 0
v -592 -608 0
v -560 -624 0
v -576 -624 0
v -576 -608 0
v -560 -608 0
v -816 -640 0
v -832 -640 0
v -832 -624 0
v -816 -624 0
v -592 -640 0
v -608 -640 0
v -608 -624 0
v -592 -624 0
v -816 -656 0
v -832 -656 0
v -832 -640 0
v -816 -640 0
v -512 -656 0
v -528 -656 0
v -528 -640 0
v -512 -640 0
v -528 -672 0
v -544 -672 0
v -544 -656 0
v -528 -656 0
v -512 -672 0
v -528 -672 0
v -528 -656 0
v -512 -656 0
v -464 -672 0
v -480 -672 0
v -480 -656 0
v -464 -656 0
v -384 -672 0
v -400 -672 0
v -400 -656 0
v -384 -656 0
v -528 -688 0
v -544 -688 0
v -544 -672 0
v -528 -672 0
v -464 -688 0
v -480 -688 0
v -480 -672 0
v -464 -672 0
v -384 -688 0
v -400 -688 0
v -400 -672 0
v -384 -672 0
v -496 -704 0
v -512 -704 0
v -512 -688 0
v -496 -688 0
v -496 -720 0
v -512 -720 0
v -512 -704 0
v -496 -704 0
v -448 -720 0
v -464 -720 0
v -464 -704 0
v -448 -704 0
v -848 -736 0
v -864 -736 0
v -864 -720 0
v -848 -720 0
v -832 -736 0
v -848 -736 0
v -848 -720 0
v -832 -720 0
v -496 -736 0
v -512 -736 0
v -512 -720 0
v -496 -720 0
v -448 -736 0
v -464 -736 0
v -464 -720 0
v -448 -720 0
v -864 -752 0
v -880 -752 0
v -880 -736 0
v -864 -736 0
v -848 -752 0
v -864 -752 0
v -864 -736 0
v -848 -736 0
v -832 -752 0
v -848 -752 0
v -848 -736 0
v -832 -736 0
v -816 -752 0
v -832 -752 0
v -832 -736 0
v -816 -736 0
v -496 -752 0
v -512 -752 0
v -512 -736 0
v -496 -736 0
v -864 -768 0
v -880 -768 0
v -880 -752 0
v -864 -752 0
v -848 -768 0
v -864 -768 0
v -864 -752 0
v -848 -752 0
v -832 -768 0
v -848 -768 0
v -848 -752 0
v -832 -752 0
v -816 -768 0
v -832 -768 0
v -832 -752 0
v -816 -752 0
v -864 -784 0
v -880 -784 0
v -880 -768 0
v -864 -768 0
v -816 -784 0
v -832 -784 0
v -832 -768 0
v -816 -768 0
v -832 -816 0
v -848 -816 0
v -848 -800 0
v -832 -800 0

# Texture cooridinates (Count = 64)
vt 0.3688017 0.2908745
vt 0.3853306 0.2908745
vt 0.3853306 0.3212928
vt 0.3688017 0.3212928
vt 0.3512397 0.2908745
vt 0.3677686 0.2908745
vt 0.3677686 0.3212928
vt 0.3512397 0.3212928
vt 0.3688017 0.2585551
vt 0.3853306 0.2585551
vt 0.3853306 0.2889734
vt 0.3688017 0.2889734
vt 0.3512397 0.2585551
vt 0.3677686 0.2585551
vt 0.3677686 0.2889734
vt 0.3512397 0.2889734
vt 0.3688017 0.2262357
vt 0.3853306 0.2262357
vt 0.3853306 0.256654
vt 0.3688017 0.256654
vt 0.3512397 0.2262357
vt 0.3677686 0.2262357
vt 0.3677686 0.256654
vt 0.3512397 0.256654
vt 0.6322314 0.9372624
vt 0.6487603 0.9372624
vt 0.6487603 0.9676806
vt 0.6322314 0.9676806
vt 0.2809917 0.6787072
vt 0.2975207 0.6787072
vt 0.2975207 0.7091255
vt 0.2809917 0.7091255
vt 0.2634298 0.6463878
vt 0.2799587 0.6463878
vt 0.2799587 0.6768061
vt 0.2634298 0.6768061
vt 0.2634298 0.6140684
vt 0.2799587 0.6140684
vt 0.2799587 0.6444867
vt 0.2634298 0.6444867
vt 0.2985537 0.6463878
vt 0.3150826 0.6463878
vt 0.3150826 0.6768061
vt 0.2985537 0.6768061
vt 0.2985537 0.6140684
vt 0.3150826 0.6140684
vt 0.3150826 0.6444867
vt 0.2985537 0.6444867
vt 0.2809917 0.6463878
vt 0.2975207 0.6463878
vt 0.2975207 0.6768061
vt 0.2809917 0.6768061
vt 0.2809917 0.6140684
vt 0.2975207 0.6140684
vt 0.2975207 0.6444867
vt 0.2809917 0.6444867
vt 0.3161157 0.6463878
vt 0.3326446 0.6463878
vt 0.3326446 0.6768061
vt 0.3161157 0.6768061
vt 0.3161157 0.6140684
vt 0.3326446 0.6140684
vt 0.3326446 0.6444867
vt 0.3161157 0.6444867

# Normal
vn 0 0 -1

# Mesh description
g map2_mesh_0003

# Faces
f 1/1/1 2/2/1 3/3/1 4/4/1
f 5/5/1 6/6/1 7/7/1 8/8/1
f 9/1/1 10/2/1 11/3/1 12/4/1
f 13/9/1 14/10/1 15/11/1 16/12/1
f 17/13/1 18/14/1 19/15/1 20/16/1
f 21/5/1 22/6/1 23/7/1 24/8/1
f 25/9/1 26/10/1 27/11/1 28/12/1
f 29/17/1 30/18/1 31/19/1 32/20/1
f 33/21/1 34/22/1 35/23/1 36/24/1
f 37/13/1 38/14/1 39/15/1 40/16/1
f 41/17/1 42/18/1 43/19/1 44/20/1
f 45/21/1 46/22/1 47/23/1 48/24/1
f 49/25/1 50/26/1 51/27/1 52/28/1
f 53/29/1 54/30/1 55/31/1 56/32/1
f 57/29/1 58/30/1 59/31/1 60/32/1
f 61/29/1 62/30/1 63/31/1 64/32/1
f 65/33/1 66/34/1 67/35/1 68/36/1
f 69/33/1 70/34/1 71/35/1 72/36/1
f 73/29/1 74/30/1 75/31/1 76/32/1
f 77/37/1 78/38/1 79/39/1 80/40/1
f 81/37/1 82/38/1 83/39/1 84/40/1
f 85/33/1 86/34/1 87/35/1 88/36/1
f 89/37/1 90/38/1 91/39/1 92/40/1
f 93/33/1 94/34/1 95/35/1 96/36/1
f 97/37/1 98/38/1 99/39/1 100/40/1
f 101/33/1 102/34/1 103/35/1 104/36/1
f 105/33/1 106/34/1 107/35/1 108/36/1
f 109/37/1 110/38/1 111/39/1 112/40/1
f 113/33/1 114/34/1 115/35/1 116/36/1
f 117/37/1 118/38/1 119/39/1 120/40/1
f 121/41/1 122/42/1 123/43/1 124/44/1
f 125/37/1 126/38/1 127/39/1 128/40/1
f 129/41/1 130/42/1 131/43/1 132/44/1
f 133/45/1 134/46/1 135/47/1 136/48/1
f 137/29/1 138/30/1 139/31/1 140/32/1
f 141/45/1 142/46/1 143/47/1 144/48/1
f 145/49/1 146/50/1 147/51/1 148/52/1
f 149/41/1 150/42/1 151/43/1 152/44/1
f 153/41/1 154/42/1 155/43/1 156/44/1
f 157/53/1 158/54/1 159/55/1 160/56/1
f 161/45/1 162/46/1 163/47/1 164/48/1
f 165/49/1 166/50/1 167/51/1 168/52/1
f 169/45/1 170/46/1 171/47/1 172/48/1
f 173/49/1 174/50/1 175/51/1 176/52/1
f 177/53/1 178/54/1 179/55/1 180/56/1
f 181/49/1 182/50/1 183/51/1 184/52/1
f 185/53/1 186/54/1 187/55/1 188/56/1
f 189/57/1 190/58/1 191/59/1 192/60/1
f 193/53/1 194/54/1 195/55/1 196/56/1
f 197/41/1 198/42/1 199/43/1 200/44/1
f 201/61/1 202/62/1 203/63/1 204/64/1
f 205/49/1 206/50/1 207/51/1 208/52/1
f 209/45/1 210/46/1 211/47/1 212/48/1
f 213/41/1 214/42/1 215/43/1 216/44/1
f 217/53/1 218/54/1 219/55/1 220/56/1
f 221/45/1 222/46/1 223/47/1 224/48/1
f 225/57/1 226/58/1 227/59/1 228/60/1
f 229/49/1 230/50/1 231/51/1 232/52/1
f 233/61/1 234/62/1 235/63/1 236/64/1
f 237/57/1 238/58/1 239/59/1 240/60/1
f 241/57/1 242/58/1 243/59/1 244/60/1
f 245/53/1 246/54/1 247/55/1 248/56/1
f 249/61/1 250/62/1 251/63/1 252/64/1
f 253/61/1 254/62/1 255/63/1 256/64/1
f 257/57/1 258/58/1 259/59/1 260/60/1
f 261/61/1 262/62/1 263/63/1 264/64/1
f 265/57/1 266/58/1 267/59/1 268/60/1
f 269/1/1 270/2/1 271/3/1 272/4/1
f 273/5/1 274/6/1 275/7/1 276/8/1
f 277/57/1 278/58/1 279/59/1 280/60/1
f 281/61/1 282/62/1 283/63/1 284/64/1
f 285/1/1 286/2/1 287/3/1 288/4/1
f 289/9/1 290/10/1 291/11/1 292/12/1
f 293/13/1 294/14/1 295/15/1 296/16/1
f 297/5/1 298/6/1 299/7/1 300/8/1
f 301/61/1 302/62/1 303/63/1 304/64/1
f 305/9/1 306/10/1 307/11/1 308/12/1
f 309/17/1 310/18/1 311/19/1 312/20/1
f 313/21/1 314/22/1 315/23/1 316/24/1
f 317/13/1 318/14/1 319/15/1 320/16/1
f 321/17/1 322/18/1 323/19/1 324/20/1
f 325/21/1 326/22/1 327/23/1 328/24/1
f 329/25/1 330/26/1 331/27/1 332/28/1

