# Tiled2Unity generated file. Do not modify by hand.
# Wavefront file for 'CombatArena_mesh_0003.obj'

# Vertices (Count = 140)
v -272 -416 0
v -288 -416 0
v -288 -400 0
v -272 -400 0
v -256 -416 0
v -272 -416 0
v -272 -400 0
v -256 -400 0
v -592 -448 0
v -608 -448 0
v -608 -432 0
v -592 -432 0
v -672 -496 0
v -688 -496 0
v -688 -480 0
v -672 -480 0
v -656 -496 0
v -672 -496 0
v -672 -480 0
v -656 -480 0
v -224 -496 0
v -240 -496 0
v -240 -480 0
v -224 -480 0
v -208 -496 0
v -224 -496 0
v -224 -480 0
v -208 -480 0
v -672 -512 0
v -688 -512 0
v -688 -496 0
v -672 -496 0
v -656 -512 0
v -672 -512 0
v -672 -496 0
v -656 -496 0
v -224 -512 0
v -240 -512 0
v -240 -496 0
v -224 -496 0
v -208 -512 0
v -224 -512 0
v -224 -496 0
v -208 -496 0
v -672 -528 0
v -688 -528 0
v -688 -512 0
v -672 -512 0
v -656 -528 0
v -672 -528 0
v -672 -512 0
v -656 -512 0
v -224 -528 0
v -240 -528 0
v -240 -512 0
v -224 -512 0
v -208 -528 0
v -224 -528 0
v -224 -512 0
v -208 -512 0
v -672 -576 0
v -688 -576 0
v -688 -560 0
v -672 -560 0
v -656 -576 0
v -672 -576 0
v -672 -560 0
v -656 -560 0
v -224 -576 0
v -240 -576 0
v -240 -560 0
v -224 -560 0
v -208 -576 0
v -224 -576 0
v -224 -560 0
v -208 -560 0
v -672 -592 0
v -688 -592 0
v -688 -576 0
v -672 -576 0
v -656 -592 0
v -672 -592 0
v -672 -576 0
v -656 -576 0
v -224 -592 0
v -240 -592 0
v -240 -576 0
v -224 -576 0
v -208 -592 0
v -224 -592 0
v -224 -576 0
v -208 -576 0
v -672 -608 0
v -688 -608 0
v -688 -592 0
v -672 -592 0
v -656 -608 0
v -672 -608 0
v -672 -592 0
v -656 -592 0
v -224 -608 0
v -240 -608 0
v -240 -592 0
v -224 -592 0
v -208 -608 0
v -224 -608 0
v -224 -592 0
v -208 -592 0
v -304 -656 0
v -320 -656 0
v -320 -640 0
v -304 -640 0
v -288 -656 0
v -304 -656 0
v -304 -640 0
v -288 -640 0
v -304 -672 0
v -320 -672 0
v -320 -656 0
v -304 -656 0
v -288 -672 0
v -304 -672 0
v -304 -656 0
v -288 -656 0
v -592 -688 0
v -608 -688 0
v -608 -672 0
v -592 -672 0
v -576 -688 0
v -592 -688 0
v -592 -672 0
v -576 -672 0
v -592 -704 0
v -608 -704 0
v -608 -688 0
v -592 -688 0
v -576 -704 0
v -592 -704 0
v -592 -688 0
v -576 -688 0

# Texture cooridinates (Count = 28)
vt 0.5833333 0.2
vt 0.625 0.2
vt 0.625 0.3
vt 0.5833333 0.3
vt 0.875 0.6
vt 0.9166667 0.6
vt 0.9166667 0.7
vt 0.875 0.7
vt 0.8333333 0.6
vt 0.8333333 0.7
vt 0.7083333 0.6
vt 0.75 0.6
vt 0.75 0.7
vt 0.7083333 0.7
vt 0.6666667 0.6
vt 0.6666667 0.7
vt 0.875 0.5
vt 0.9166667 0.5
vt 0.8333333 0.5
vt 0.7083333 0.5
vt 0.75 0.5
vt 0.6666667 0.5
vt 0.875 0.4
vt 0.9166667 0.4
vt 0.8333333 0.4
vt 0.7083333 0.4
vt 0.75 0.4
vt 0.6666667 0.4

# Normal
vn 0 0 -1

# Mesh description
g CombatArena_mesh_0003

# Faces
f 1/1/1 2/2/1 3/3/1 4/4/1
f 5/1/1 6/2/1 7/3/1 8/4/1
f 9/1/1 10/2/1 11/3/1 12/4/1
f 13/5/1 14/6/1 15/7/1 16/8/1
f 17/9/1 18/5/1 19/8/1 20/10/1
f 21/11/1 22/12/1 23/13/1 24/14/1
f 25/15/1 26/11/1 27/14/1 28/16/1
f 29/17/1 30/18/1 31/6/1 32/5/1
f 33/19/1 34/17/1 35/5/1 36/9/1
f 37/20/1 38/21/1 39/12/1 40/11/1
f 41/22/1 42/20/1 43/11/1 44/15/1
f 45/23/1 46/24/1 47/18/1 48/17/1
f 49/25/1 50/23/1 51/17/1 52/19/1
f 53/26/1 54/27/1 55/21/1 56/20/1
f 57/28/1 58/26/1 59/20/1 60/22/1
f 61/5/1 62/6/1 63/7/1 64/8/1
f 65/9/1 66/5/1 67/8/1 68/10/1
f 69/11/1 70/12/1 71/13/1 72/14/1
f 73/15/1 74/11/1 75/14/1 76/16/1
f 77/17/1 78/18/1 79/6/1 80/5/1
f 81/19/1 82/17/1 83/5/1 84/9/1
f 85/20/1 86/21/1 87/12/1 88/11/1
f 89/22/1 90/20/1 91/11/1 92/15/1
f 93/23/1 94/24/1 95/18/1 96/17/1
f 97/25/1 98/23/1 99/17/1 100/19/1
f 101/26/1 102/27/1 103/21/1 104/20/1
f 105/28/1 106/26/1 107/20/1 108/22/1
f 109/1/1 110/2/1 111/3/1 112/4/1
f 113/1/1 114/2/1 115/3/1 116/4/1
f 117/1/1 118/2/1 119/3/1 120/4/1
f 121/1/1 122/2/1 123/3/1 124/4/1
f 125/1/1 126/2/1 127/3/1 128/4/1
f 129/1/1 130/2/1 131/3/1 132/4/1
f 133/1/1 134/2/1 135/3/1 136/4/1
f 137/1/1 138/2/1 139/3/1 140/4/1

